grf_walk
version=1
nRows=111
nColumns=19
inDegrees=no
endheader
time	ground_force_r_vx	ground_force_r_vy	ground_force_r_vz	ground_force_r_px	ground_force_r_py	ground_force_r_pz	ground_torque_r_x	ground_torque_r_y	ground_torque_r_z	ground_force_l_vx	ground_force_l_vy	ground_force_l_vz	ground_force_l_px	ground_force_l_py	ground_force_l_pz	ground_torque_l_x	ground_torque_l_y	ground_torque_l_z
0	0	0	0	331.7057913303967	0	92.3592385601652	0	0	0	0	0	0	153.4372064333972	0	-495.9267010867398	0	0	0
0.0005	0	0	0	331.5562971354273	0	92.31735793974563	0	0	0	0	0	0	153.4158317772956	0	-495.8556251120502	0	0	0
0.001	0	0	0	331.2588645483703	0	92.23403263676467	0	0	0	0	0	0	153.3732977624547	0	-495.7141893354978	0	0	0
0.0015	0	0	0	330.8165589800968	0	92.11012158300122	0	0	0	0	0	0	153.3100285937425	0	-495.5038048474046	0	0	0
0.002	0	0	0	330.233865337249	0	91.94688145450812	0	0	0	0	0	0	153.2266449190175	0	-495.2265361928248	0	0	0
0.0025	0	0	0	329.5165583911919	0	91.74593034873406	0	0	0	0	0	0	153.1239458980154	0	-494.8850417249666	0	0	0
0.003	0	0	0	328.6715398480165	0	91.50920213113328	0	0	0	0	0	0	153.0028866652247	0	-494.4824986365506	0	0	0
0.0035	0	0	0	327.7066497444595	0	91.23889358790471	0	0	0	0	0	0	152.8645522411535	0	-494.0225161771313	0	0	0
0.004	0	0	0	326.6304607024755	0	90.93740677567081	0	0	0	0	0	0	152.7101290721955	0	-493.509040982208	0	0	0
0.0045	0	0	0	325.4520639458563	0	90.60728906287633	0	0	0	0	0	0	152.5408754306586	0	-492.9462586104866	0	0	0
0.005	0	0	0	324.180855820285	0	90.25117331223844	0	0	0	0	0	0	152.3580918838952	0	-492.3384953112493	0	0	0
0.0055	0	0	0	322.826332906457	0	89.87172047100424	0	0	0	0	0	0	152.1630929515339	0	-491.6901237436901	0	0	0
0.006	0	0	0	321.3979027537881	0	89.4715665381797	0	0	0	0	0	0	151.9571809228485	0	-491.0054758818693	0	0	0
0.0065	0	0	0	319.9047158927598	0	89.05327549404313	0	0	0	0	0	0	151.7416226167738	0	-490.2887657085577	0	0	0
0.007	0	0	0	318.3555232248711	0	88.61929934056339	0	0	0	0	0	0	151.5176296518356	0	-489.5440235840148	0	0	0
0.0075	0	0	0	316.7585612613214	0	88.17194594505933	0	0	0	0	0	0	151.2863425675836	0	-488.7750434270927	0	0	0
0.008	0	0	0	315.1214660987313	0	87.71335493614077	0	0	0	0	0	0	151.0488189206516	0	-487.9853431175056	0	0	0
0.008500000000000001	0	0	0	313.4512155795343	0	87.24548149693379	0	0	0	0	0	0	150.8060252790512	0	-487.1781378654732	0	0	0
0.008999999999999999	0	0	0	311.7540978613222	0	86.77008755828498	0	0	0	0	0	0	150.5588328692548	0	-486.3563257319545	0	0	0
0.0095	0	0	0	310.0357036631223	0	86.28873962621174	0	0	0	0	0	0	150.3080164982363	0	-485.522484042979	0	0	0
0.01	0	0	0	308.3009387902251	0	85.8028122914891	0	0	0	0	0	0	150.0542562804405	0	-484.6788751345287	0	0	0
0.0105	0	0	0	306.5540531614194	0	85.31349636322038	0	0	0	0	0	0	149.7981416476061	0	-483.8274596910125	0	0	0
0.011	0	0	0	304.7986824511256	0	84.82181053720933	0	0	0	0	0	0	149.5401771037134	0	-482.9699158887973	0	0	0
0.0115	0	0	0	303.03789857697	0	84.32861554269678	0	0	0	0	0	0	149.2807892036826	0	-482.1076626106302	0	0	0
0.012	0	0	0	301.2742655617923	0	83.83462979514609	0	0	0	0	0	0	149.0203342759077	0	-481.2418851342091	0	0	0
0.0125	0	0	0	299.5098977277117	0	83.34044570244549	0	0	0	0	0	0	148.7591064676807	0	-480.3735618949565	0	0	0
0.013	0	0	0	297.7465176856074	0	82.84654591373494	0	0	0	0	0	0	148.4973457627965	0	-479.5034911561014	0	0	0
0.0135	0	0	0	295.9855121206098	0	82.3533189507029	0	0	0	0	0	0	148.2352456946873	0	-478.6323166660277	0	0	0
0.014	0	0	0	294.2279839027293	0	81.86107380913039	0	0	0	0	0	0	147.9729605515919	0	-477.7605516260913	0	0	0
0.0145	0	0	0	292.4747995411249	0	81.37005325579916	0	0	0	0	0	0	147.7106119381787	0	-476.8886005172836	0	0	0
0.015	0	0	0	290.7266314302394	0	80.88044566594375	0	0	0	0	0	0	147.4482946170157	0	-476.0167785317343	0	0	0
0.0155	0	0	0	288.9839946929069	0	80.39239534681593	0	0	0	0	0	0	147.1860816031047	0	-475.1453285192896	0	0	0
0.016	0	0	0	287.2472787062058	0	79.90601137136555	0	0	0	0	0	0	146.924028523146	0	-474.2744354885145	0	0	0
0.0165	0	0	0	285.5167736019419	0	79.42137500371801	0	0	0	0	0	0	146.6621772800011	0	-473.4042387962684	0	0	0
0.017	0	0	0	283.7926921712994	0	78.93854583696195	0	0	0	0	0	0	146.4005590816694	0	-472.5348422234395	0	0	0
0.0175	0	0	0	282.075187683196	0	78.45756678588124	0	0	0	0	0	0	146.139196905205	0	-471.6663221710738	0	0	0
0.018	0	0	0	280.3643681575736	0	77.97846808639098	0	0	0	0	0	0	145.8781074704601	0	-470.7987342259304	0	0	0
0.0185	0	0	0	278.6603076308851	0	77.5012704521672	0	0	0	0	0	0	145.6173027978894	0	-469.9321183424395	0	0	0
0.019	0	0	0	276.9630549207938	0	77.02598753050441	0	0	0	0	0	0	145.3567914205794	0	-469.0665028744535	0	0	0
0.0195	0	0	0	275.2726403508614	0	76.55262778663379	0	0	0	0	0	0	145.0965793141519	0	-468.2019076685127	0	0	0
0.02	0	0	0	273.5890808401632	0	76.08119592979918	0	0	0	0	0	0	144.8366706005825	0	-467.3383464050999	0	0	0
0.0205	0	0	0	271.9124012970815	0	75.61169890790357	0	0	0	0	0	0	144.5770705067549	0	-466.4758364401316	0	0	0
0.021	0	0	0	270.2426138533286	0	75.14414008879669	0	0	0	0	0	0	144.3177824926566	0	-465.6143892520753	0	0	0
0.0215	0	0	0	268.5797042638989	0	74.67851544946987	0	0	0	0	0	0	144.058806370579	0	-464.7540041854937	0	0	0
0.022	0	0	0	266.9236582837634	0	74.21482096692311	0	0	0	0	0	0	143.8001419528078	0	-463.894680584945	0	0	0
0.0225	0	0	0	265.2744616678974	0	73.75305261812174	0	0	0	0	0	0	143.54178905162	0	-463.0364177950107	0	0	0
0.023	0	0	0	263.6321001712628	0	73.29320638003118	0	0	0	0	0	0	143.2837474792906	0	-462.1792151602587	0	0	0
0.0235	0	0	0	261.9965595488256	0	72.83527822959309	0	0	0	0	0	0	143.0260170480772	0	-461.3230720252868	0	0	0
0.024	0	0	0	260.3678255555631	0	72.37926414369373	0	0	0	0	0	0	142.7685975702389	0	-460.4679877346869	0	0	0
0.0245	0	0	0	258.7458839464728	0	71.9251600992353	0	0	0	0	0	0	142.5114888580429	0	-459.6139616330914	0	0	0
0.025	0	0	0	257.1307204765854	0	71.47296207307232	0	0	0	0	0	0	142.2546907237193	0	-458.7609930651309	0	0	0
0.0255	0	0	0	255.5223209009364	0	71.0226660420218	0	0	0	0	0	0	141.998202979514	0	-457.9090813754709	0	0	0
0.026	0	0	0	253.9206709746163	0	70.57426798289042	0	0	0	0	0	0	141.7420254376772	0	-457.0582259088008	0	0	0
0.0265	0	0	0	252.3257564527257	0	70.12776387247762	0	0	0	0	0	0	141.4861579104451	0	-456.2084260098315	0	0	0
0.027	0	0	0	250.7375630904206	0	69.68314968756405	0	0	0	0	0	0	141.2306002100278	0	-455.3596810232943	0	0	0
0.0275	0	0	0	249.1560766428875	0	69.24042140490027	0	0	0	0	0	0	140.9753521486531	0	-454.5119902939405	0	0	0
0.028	0	0	0	247.58128286532	0	68.79957500124605	0	0	0	0	0	0	140.7204135385552	0	-453.6653531665252	0	0	0
0.0285	0	0	0	246.0131675129448	0	68.36060645335898	0	0	0	0	0	0	140.4657841919514	0	-452.819768985847	0	0	0
0.029	0	0	0	244.4517163410122	0	67.92351173801359	0	0	0	0	0	0	140.2114639210444	0	-451.9752370966674	0	0	0
0.0295	0	0	0	242.8969151047682	0	67.4882868319774	0	0	0	0	0	0	139.9574525380457	0	-451.1317568437659	0	0	0
0.03	0	0	0	241.3487495594575	0	67.05492771205908	0	0	0	0	0	0	139.7037498551506	0	-450.2893275719262	0	0	0
0.0305	0	0	0	239.8072054603023	0	66.62343035507895	0	0	0	0	0	0	139.4503556845714	0	-449.4479486258977	0	0	0
0.031	0	0	0	238.2722685625353	0	66.19379073788177	0	0	0	0	0	0	139.19726983851	0	-448.6076193504312	0	0	0
0.0315	0	0	0	236.7439246213303	0	65.76600483734325	0	0	0	0	0	0	138.9444921291475	0	-447.7683390902365	0	0	0
0.032	0	0	0	235.2221593918503	0	65.34006863038044	0	0	0	0	0	0	138.6920223687072	0	-446.9301071900202	0	0	0
0.0325	0	0	0	233.7069586292118	0	64.91597809391774	0	0	0	0	0	0	138.4398603693674	0	-446.0929229944292	0	0	0
0.033	0	0	0	232.1983080884943	0	64.49372920491955	0	0	0	0	0	0	138.1880059433327	0	-445.256785848116	0	0	0
0.0335	0	0	0	230.6961935247428	0	64.07331794038778	0	0	0	0	0	0	137.9364589028148	0	-444.4216950957083	0	0	0
0.034	0	0	0	229.2006006929686	0	63.65474027732437	0	0	0	0	0	0	137.6852190600411	0	-443.5876500817938	0	0	0
0.0345	0	0	0	227.711515348161	0	63.23799219276987	0	0	0	0	0	0	137.4342862272238	0	-442.754650150947	0	0	0
0.035	0	0	0	226.2289232452659	0	62.82306966376845	0	0	0	0	0	0	137.1836602165841	0	-441.9226946477413	0	0	0
0.0355	0	0	0	224.7528101392248	0	62.40996866738482	0	0	0	0	0	0	136.9333408403761	0	-441.0917829167571	0	0	0
0.036	0	0	0	223.2831617849935	0	61.99868518065135	0	0	0	0	0	0	136.6833279108422	0	-440.2619143025755	0	0	0
0.0365	0	0	0	221.8199639374972	0	61.5892151806395	0	0	0	0	0	0	136.4336212402461	0	-439.4330881497788	0	0	0
0.037	0	0	0	220.3632023516832	0	61.18155464439098	0	0	0	0	0	0	136.1842206408656	0	-438.605303802994	0	0	0
0.0375	0	0	0	218.9128627825245	0	60.77569954893526	0	0	0	0	0	0	135.9351259249823	0	-437.7785606068574	0	0	0
0.038	0	0	0	217.4689309849932	0	60.37164587128571	0	0	0	0	0	0	135.6863369049083	0	-436.9528579060467	0	0	0
0.0385	0	0	0	216.0313927140957	0	59.96938958842335	0	0	0	0	0	0	135.437853392945	0	-436.1281950452915	0	0	0
0.039	0	0	0	214.6002337248721	0	59.56892667732856	0	0	0	0	0	0	135.1896752014225	0	-435.3045713693326	0	0	0
0.0395	0	0	0	213.1754397723902	0	59.17025311495939	0	0	0	0	0	0	134.9418021426784	0	-434.4819862229789	0	0	0
0.04	0	0	0	211.7569966117216	0	58.77336487821745	0	0	0	0	0	0	134.694234029045	0	-433.660438951063	0	0	0
0.0405	0	0	0	210.3448899979697	0	58.37825794403454	0	0	0	0	0	0	134.4469706728883	0	-432.8399288984433	0	0	0
0.041	0	0	0	208.9391056862687	0	57.98492828926766	0	0	0	0	0	0	134.2000118865555	0	-432.0204554100375	0	0	0
0.0415	0	0	0	207.5396294317426	0	57.59337189078721	0	0	0	0	0	0	133.953357482396	0	-431.2020178307396	0	0	0
0.042	0	0	0	206.1464469895463	0	57.20358472542796	0	0	0	0	0	0	133.7070072727946	0	-430.3846155054768	0	0	0
0.0425	0	0	0	204.7595441148336	0	56.81556277004442	0	0	0	0	0	0	133.4609610700899	0	-429.5682477791882	0	0	0
0.043	0	0	0	203.3789065627605	0	56.42930200143782	0	0	0	0	0	0	133.2152186866467	0	-428.7529139967841	0	0	0
0.0435	0	0	0	202.0045200884802	0	56.04479839643665	0	0	0	0	0	0	132.9697799348032	0	-427.9386135031799	0	0	0
0.044	0	0	0	200.6363704471561	0	55.66204793186653	0	0	0	0	0	0	132.7246446269005	0	-427.125345643258	0	0	0
0.0445	0	0	0	199.2744433939291	0	55.28104658454598	0	0	0	0	0	0	132.4798125752562	0	-426.3131097618469	0	0	0
0.045	0	0	0	197.9187246839574	0	54.90179033128967	0	0	0	0	0	0	132.2352835921853	0	-425.5019052037825	0	0	0
0.0455	0	0	0	196.5692000723843	0	54.52427514894069	0	0	0	0	0	0	131.9910574900005	0	-424.6917313138196	0	0	0
0.046	0	0	0	195.2258553143497	0	54.1484970143431	0	0	0	0	0	0	131.7471340809886	0	-423.8825874367034	0	0	0
0.0465	0	0	0	193.8886761649914	0	53.77445190435252	0	0	0	0	0	0	131.5035131773894	0	-423.0744729171254	0	0	0
0.047	0	0	0	192.5576483794564	0	53.402135795837	0	0	0	0	0	0	131.2601945914907	0	-422.2673870997378	0	0	0
0.0475	0	0	0	191.2327577128638	0	53.03154466567743	0	0	0	0	0	0	131.0171781355112	0	-421.4613293291462	0	0	0
0.048	0	0	0	189.9139899203481	0	52.66267449077593	0	0	0	0	0	0	130.7744636216889	0	-420.656298949944	0	0	0
0.0485	0	0	0	188.6013307570298	0	52.29552124802512	0	0	0	0	0	0	130.5320508622149	0	-419.8522953066855	0	0	0
0.049	0	0	0	187.2947659780334	0	51.93008091434946	0	0	0	0	0	0	130.2899396693002	0	-419.0493177438938	0	0	0
0.0495	0	0	0	185.9942813384386	0	51.56634946666016	0	0	0	0	0	0	130.0481298551372	0	-418.2473656060882	0	0	0
0.05	0	0	0	184.6998625933535	0	51.20432288189605	0	0	0	0	0	0	129.8066212319128	0	-417.4464382377887	0	0	0
0.0505	0	0	0	183.4114954978501	0	50.84399713698722	0	0	0	0	0	0	129.5654136117992	0	-416.6465349835026	0	0	0
0.051	0	0	0	182.1291658069724	0	50.48536820887487	0	0	0	0	0	0	129.3245068069757	0	-415.8476551877326	0	0	0
0.0515	0	0	0	180.8528592757634	0	50.12843207446598	0	0	0	0	0	0	129.083900629611	0	-415.0497981949905	0	0	0
0.052	0	0	0	179.5825616592361	0	49.77318471070791	0	0	0	0	0	0	128.8435948918969	0	-414.2529633498342	0	0	0
0.0525	0	0	0	178.3182587123978	0	49.41962209451885	0	0	0	0	0	0	128.6035894060101	0	-413.4571499968097	0	0	0
0.053	0	0	0	177.059936190216	0	49.06774020279957	0	0	0	0	0	0	128.3638839841588	0	-412.6623574804859	0	0	0
0.0535	0	0	0	175.8075798476651	0	48.71753501246648	0	0	0	0	0	0	128.124478438539	0	-411.8685851454758	0	0	0
0.054	0	0	0	174.5611754396849	0	48.36900250041757	0	0	0	0	0	0	127.8853725813588	0	-411.0758323364093	0	0	0
0.0545	0	0	0	173.3207087212297	0	48.02213864354174	0	0	0	0	0	0	127.6465662248575	0	-410.2840983979366	0	0	0
0.055	0	0	0	172.0861654472405	0	47.67693941871978	0	0	0	0	0	0	127.4080591812649	0	-409.4933826747596	0	0	0
